<svg width="96" height="96" xmlns="http://www.w3.org/2000/svg" xmlns:xlink="http://www.w3.org/1999/xlink" xml:space="preserve" overflow="hidden"><defs><clipPath id="clip0"><rect x="432" y="312" width="96" height="96"/></clipPath></defs><g clip-path="url(#clip0)" transform="translate(-432 -312)"><path d="M485.7 360C485.7 363.314 483.014 366 479.7 366 476.386 366 473.7 363.314 473.7 360 473.7 356.686 476.386 354 479.7 354 483.014 354 485.7 356.686 485.7 360Z" fill="#DEABC4"/><path d="M514.9 340C513.2 337.1 509.4 335.7 504.2 335.7 500.9 335.7 497.1 336.3 492.9 337.4 490 326.9 485.2 320 479.7 320 474.3 320 469.4 326.8 466.6 337.2 462.6 336.2 459 335.6 455.8 335.6 450.6 335.6 446.8 337 445.1 339.9 442.3 344.7 446 352.4 453.7 360.2 446.3 367.8 442.9 375.2 445.6 379.9 447.3 382.8 451.1 384.2 456.3 384.2 459.3 384.2 462.8 383.7 466.6 382.8 469.5 393.2 474.3 400 479.7 400 485.1 400 490 393.2 492.8 382.8 496.8 383.8 500.4 384.4 503.6 384.4 508.8 384.4 512.6 383 514.3 380.1 517 375.4 513.6 368 506.2 360.4 514.1 352.5 517.7 344.8 514.9 340ZM504.2 339.7C507.9 339.7 510.6 340.6 511.4 342 512.9 344.6 510.2 350.7 503.4 357.5 501 355.3 498.3 353.1 495.3 351 495 347.6 494.5 344.3 493.8 341.2 497.6 340.2 501.2 339.7 504.2 339.7ZM486.3 370.4C484.2 371.6 482.1 372.7 480 373.7 477.9 372.7 475.8 371.6 473.7 370.4 471.7 369.2 469.7 368 467.9 366.8 467.7 364.6 467.7 362.4 467.7 360 467.7 357.8 467.8 355.7 467.9 353.6 469.9 352.2 472 350.9 474.3 349.6 476.2 348.5 478.1 347.5 480 346.6 481.9 347.5 483.8 348.5 485.7 349.6 487.7 350.8 489.7 352 491.5 353.2 491.7 355.4 491.7 357.6 491.7 360 491.7 362.5 491.6 364.9 491.4 367.2 489.8 368.3 488.1 369.3 486.3 370.4ZM490.9 372.3C490.6 374.2 490.3 376.1 490 377.8 488.3 377.2 486.5 376.6 484.7 375.8 485.9 375.2 487.1 374.5 488.3 373.8 489.2 373.3 490.1 372.8 490.9 372.3ZM475.3 375.8C473.3 376.6 471.4 377.3 469.5 377.9 469.1 376 468.8 374 468.5 371.9 469.6 372.6 470.6 373.2 471.8 373.9 472.9 374.5 474.1 375.2 475.3 375.8ZM463.8 363.8C462.2 362.6 460.8 361.4 459.5 360.2 460.8 359 462.3 357.8 463.8 356.6 463.8 357.7 463.7 358.8 463.7 360 463.7 361.3 463.7 362.6 463.8 363.8ZM468.4 348.5C468.7 346.3 469 344.2 469.4 342.2 471.3 342.8 473.3 343.6 475.3 344.4 474.3 344.9 473.2 345.5 472.2 346.1 471 346.9 469.7 347.7 468.4 348.5ZM484.6 344.4C486.4 343.6 488.2 343 490 342.4 490.4 344.2 490.7 346.1 491 348.1 489.9 347.4 488.9 346.8 487.7 346.1 486.7 345.6 485.7 345 484.6 344.4ZM495.6 356.2C497.4 357.6 499 358.9 500.5 360.3 499 361.6 497.4 363 495.6 364.3 495.7 362.9 495.7 361.5 495.7 360.1 495.7 358.7 495.7 357.4 495.6 356.2ZM479.7 324C482.7 324 486.6 329.3 489.1 338.5 486.2 339.5 483.1 340.7 480 342.1 476.7 340.6 473.5 339.3 470.4 338.3 472.9 329.2 476.7 324 479.7 324ZM448.5 342C449.4 340.5 452 339.7 455.7 339.7 458.6 339.7 461.9 340.2 465.5 341.1 464.8 344.3 464.3 347.8 464 351.4 461.2 353.4 458.7 355.4 456.5 357.5 449.8 350.7 447 344.6 448.5 342ZM456.3 380.3C452.6 380.3 449.9 379.4 449.1 378 447.6 375.4 450.2 369.6 456.6 363 458.9 365 461.4 367 464.1 369 464.4 372.5 464.9 375.9 465.6 379 462.3 379.9 459.1 380.3 456.3 380.3ZM479.7 396C476.7 396 472.9 390.8 470.4 381.8 473.5 380.8 476.7 379.6 480 378.1 483.1 379.5 486.1 380.7 489 381.6 486.5 390.8 482.7 396 479.7 396ZM510.9 378C510 379.5 507.4 380.3 503.7 380.3 500.8 380.3 497.4 379.8 493.9 378.9 494.5 375.9 495 372.8 495.3 369.4 498.3 367.3 501 365.2 503.4 363 509.8 369.6 512.4 375.4 510.9 378Z" fill="#DEABC4"/></g></svg>